<svg version="1.1" xmlns="http://www.w3.org/2000/svg" viewBox="0 0 855.7995376586914 381.1387652620467" width="855.7995376586914" height="381.1387652620467">
  <!-- svg-source:excalidraw -->
  
  <defs>
    <style class="style-fonts">
      @font-face {
        font-family: "Virgil";
        src: url("https://excalidraw.com/Virgil.woff2");
      }
      @font-face {
        font-family: "Cascadia";
        src: url("https://excalidraw.com/Cascadia.woff2");
      }
      @font-face {
        font-family: "Assistant";
        src: url("https://excalidraw.com/Assistant-Regular.woff2");
      }
    </style>
    
  </defs>
  <rect x="0" y="0" width="855.7995376586914" height="381.1387652620467" fill="#f8f9fa"></rect><g stroke-linecap="round" transform="translate(41.54901123046875 179.48117937241796) rotate(0 61.137969970703125 26.473709106445312)"><path d="M13.24 0 C37.23 0, 61.22 0, 109.04 0 M13.24 0 C44.8 0, 76.36 0, 109.04 0 M109.04 0 C117.86 0, 122.28 4.41, 122.28 13.24 M109.04 0 C117.86 0, 122.28 4.41, 122.28 13.24 M122.28 13.24 C122.28 22.87, 122.28 32.51, 122.28 39.71 M122.28 13.24 C122.28 21.88, 122.28 30.52, 122.28 39.71 M122.28 39.71 C122.28 48.54, 117.86 52.95, 109.04 52.95 M122.28 39.71 C122.28 48.54, 117.86 52.95, 109.04 52.95 M109.04 52.95 C83.13 52.95, 57.21 52.95, 13.24 52.95 M109.04 52.95 C83.48 52.95, 57.91 52.95, 13.24 52.95 M13.24 52.95 C4.41 52.95, 0 48.54, 0 39.71 M13.24 52.95 C4.41 52.95, 0 48.54, 0 39.71 M0 39.71 C0 30.64, 0 21.57, 0 13.24 M0 39.71 C0 30.14, 0 20.57, 0 13.24 M0 13.24 C0 4.41, 4.41 0, 13.24 0 M0 13.24 C0 4.41, 4.41 0, 13.24 0" stroke="#1e1e1e" stroke-width="1" fill="none"></path></g><g transform="translate(75.00518798828125 185.48276628648046) rotate(0 27.58397674560547 20)"><text x="0" y="14.016" font-family="Virgil, Segoe UI Emoji" font-size="16px" fill="#1e1e1e" text-anchor="start" style="white-space: pre;" direction="ltr" dominant-baseline="alphabetic">web</text><text x="0" y="34.016" font-family="Virgil, Segoe UI Emoji" font-size="16px" fill="#1e1e1e" text-anchor="start" style="white-space: pre;" direction="ltr" dominant-baseline="alphabetic">crawler</text></g><g transform="translate(175.2095947265625 181.95128740464452) rotate(0 23.759979248046875 10)"><text x="0" y="14.016" font-family="Virgil, Segoe UI Emoji" font-size="16px" fill="#1e1e1e" text-anchor="start" style="white-space: pre;" direction="ltr" dominant-baseline="alphabetic">[links]</text></g><g transform="translate(377.9310302734375 180.14727129136327) rotate(0 46.5999755859375 10)"><text x="0" y="14.016" font-family="Virgil, Segoe UI Emoji" font-size="16px" fill="#1e1e1e" text-anchor="start" style="white-space: pre;" direction="ltr" dominant-baseline="alphabetic">vectorStore</text></g><g transform="translate(126.29827880859375 44.04387773667577) rotate(0 78.35994720458984 10)"><text x="0" y="14.016" font-family="Virgil, Segoe UI Emoji" font-size="16px" fill="#e03131" text-anchor="start" style="white-space: pre;" direction="ltr" dominant-baseline="alphabetic">[chatbot rag &lt;url&gt;]</text></g><g stroke-linecap="round"><g transform="translate(104.69439697265625 79.43801771243011) rotate(0 -0.324920654296875 46.55677212966509)"><path d="M0 0 C-0.11 15.52, -0.54 77.59, -0.65 93.11 M0 0 C-0.11 15.52, -0.54 77.59, -0.65 93.11" stroke="#1e1e1e" stroke-width="1" fill="none"></path></g><g transform="translate(104.69439697265625 79.43801771243011) rotate(0 -0.324920654296875 46.55677212966509)"><path d="M-9.04 69.56 C-6.14 77.68, -3.25 85.8, -0.65 93.11 M-9.04 69.56 C-7.11 74.98, -5.18 80.4, -0.65 93.11" stroke="#1e1e1e" stroke-width="1" fill="none"></path></g><g transform="translate(104.69439697265625 79.43801771243011) rotate(0 -0.324920654296875 46.55677212966509)"><path d="M8.06 69.68 C5.06 77.76, 2.05 85.84, -0.65 93.11 M8.06 69.68 C6.06 75.07, 4.05 80.47, -0.65 93.11" stroke="#1e1e1e" stroke-width="1" fill="none"></path></g></g><mask></mask><g transform="translate(10 102.41535295640233) rotate(0 42.3919677734375 10)"><text x="0" y="14.016" font-family="Virgil, Segoe UI Emoji" font-size="16px" fill="#1e1e1e" text-anchor="start" style="white-space: pre;" direction="ltr" dominant-baseline="alphabetic">website url</text></g><g stroke-linecap="round"><g transform="translate(361.6352411001387 210.58342056344782) rotate(0 60.551092828836886 -0.052826063328382133)"><path d="M0 0 C20.18 -0.02, 100.92 -0.09, 121.1 -0.11 M0 0 C20.18 -0.02, 100.92 -0.09, 121.1 -0.11" stroke="#1e1e1e" stroke-width="1" fill="none"></path></g><g transform="translate(361.6352411001387 210.58342056344782) rotate(0 60.551092828836886 -0.052826063328382133)"><path d="M97.62 8.47 C104.39 5.99, 111.17 3.52, 121.1 -0.11 M97.62 8.47 C105.59 5.56, 113.56 2.65, 121.1 -0.11" stroke="#1e1e1e" stroke-width="1" fill="none"></path></g><g transform="translate(361.6352411001387 210.58342056344782) rotate(0 60.551092828836886 -0.052826063328382133)"><path d="M97.6 -8.64 C104.38 -6.17, 111.16 -3.71, 121.1 -0.11 M97.6 -8.64 C105.58 -5.74, 113.55 -2.85, 121.1 -0.11" stroke="#1e1e1e" stroke-width="1" fill="none"></path></g></g><mask></mask><g stroke-linecap="round" transform="translate(237.06298828125 179.56186784898046) rotate(0 61.137969970703125 26.473709106445312)"><path d="M13.24 0 C36.98 0, 60.72 0, 109.04 0 M13.24 0 C46.41 0, 79.58 0, 109.04 0 M109.04 0 C117.86 0, 122.28 4.41, 122.28 13.24 M109.04 0 C117.86 0, 122.28 4.41, 122.28 13.24 M122.28 13.24 C122.28 23.32, 122.28 33.4, 122.28 39.71 M122.28 13.24 C122.28 23.56, 122.28 33.88, 122.28 39.71 M122.28 39.71 C122.28 48.54, 117.86 52.95, 109.04 52.95 M122.28 39.71 C122.28 48.54, 117.86 52.95, 109.04 52.95 M109.04 52.95 C87.76 52.95, 66.47 52.95, 13.24 52.95 M109.04 52.95 C82.3 52.95, 55.56 52.95, 13.24 52.95 M13.24 52.95 C4.41 52.95, 0 48.54, 0 39.71 M13.24 52.95 C4.41 52.95, 0 48.54, 0 39.71 M0 39.71 C0 33.9, 0 28.09, 0 13.24 M0 39.71 C0 31.86, 0 24.01, 0 13.24 M0 13.24 C0 4.41, 4.41 0, 13.24 0 M0 13.24 C0 4.41, 4.41 0, 13.24 0" stroke="#1e1e1e" stroke-width="1" fill="none"></path></g><g transform="translate(265.23760986328125 184.56345476304296) rotate(0 35.23998260498047 20)"><text x="0" y="14.016" font-family="Virgil, Segoe UI Emoji" font-size="16px" fill="#1e1e1e" text-anchor="start" style="white-space: pre;" direction="ltr" dominant-baseline="alphabetic">document</text><text x="0" y="34.016" font-family="Virgil, Segoe UI Emoji" font-size="16px" fill="#1e1e1e" text-anchor="start" style="white-space: pre;" direction="ltr" dominant-baseline="alphabetic">indexer</text></g><g stroke-linecap="round" transform="translate(486.7217102050781 182.96521867905858) rotate(0 61.137969970703125 26.473709106445312)"><path d="M13.24 0 C33.08 0, 52.93 0, 109.04 0 M13.24 0 C35.81 0, 58.38 0, 109.04 0 M109.04 0 C117.86 0, 122.28 4.41, 122.28 13.24 M109.04 0 C117.86 0, 122.28 4.41, 122.28 13.24 M122.28 13.24 C122.28 18.71, 122.28 24.18, 122.28 39.71 M122.28 13.24 C122.28 20.53, 122.28 27.83, 122.28 39.71 M122.28 39.71 C122.28 48.54, 117.86 52.95, 109.04 52.95 M122.28 39.71 C122.28 48.54, 117.86 52.95, 109.04 52.95 M109.04 52.95 C83.37 52.95, 57.7 52.95, 13.24 52.95 M109.04 52.95 C79.51 52.95, 49.98 52.95, 13.24 52.95 M13.24 52.95 C4.41 52.95, 0 48.54, 0 39.71 M13.24 52.95 C4.41 52.95, 0 48.54, 0 39.71 M0 39.71 C0 31.16, 0 22.62, 0 13.24 M0 39.71 C0 33.54, 0 27.37, 0 13.24 M0 13.24 C0 4.41, 4.41 0, 13.24 0 M0 13.24 C0 4.41, 4.41 0, 13.24 0" stroke="#1e1e1e" stroke-width="1" fill="none"></path></g><g transform="translate(514.8963317871094 188.96680559312108) rotate(0 37.663978576660156 20)"><text x="0" y="14.016" font-family="Virgil, Segoe UI Emoji" font-size="16px" fill="#1e1e1e" text-anchor="start" style="white-space: pre;" direction="ltr" dominant-baseline="alphabetic">chain</text><text x="0" y="34.016" font-family="Virgil, Segoe UI Emoji" font-size="16px" fill="#1e1e1e" text-anchor="start" style="white-space: pre;" direction="ltr" dominant-baseline="alphabetic">generator</text></g><g stroke-linecap="round" transform="translate(700.2639465332031 183.5183497825742) rotate(0 61.137969970703125 26.473709106445312)"><path d="M13.24 0 C35.46 0, 57.67 0, 109.04 0 M13.24 0 C42.54 0, 71.83 0, 109.04 0 M109.04 0 C117.86 0, 122.28 4.41, 122.28 13.24 M109.04 0 C117.86 0, 122.28 4.41, 122.28 13.24 M122.28 13.24 C122.28 22.69, 122.28 32.15, 122.28 39.71 M122.28 13.24 C122.28 22.54, 122.28 31.85, 122.28 39.71 M122.28 39.71 C122.28 48.54, 117.86 52.95, 109.04 52.95 M122.28 39.71 C122.28 48.54, 117.86 52.95, 109.04 52.95 M109.04 52.95 C75.01 52.95, 40.99 52.95, 13.24 52.95 M109.04 52.95 C82.48 52.95, 55.92 52.95, 13.24 52.95 M13.24 52.95 C4.41 52.95, 0 48.54, 0 39.71 M13.24 52.95 C4.41 52.95, 0 48.54, 0 39.71 M0 39.71 C0 29.82, 0 19.94, 0 13.24 M0 39.71 C0 31.32, 0 22.93, 0 13.24 M0 13.24 C0 4.41, 4.41 0, 13.24 0 M0 13.24 C0 4.41, 4.41 0, 13.24 0" stroke="#1e1e1e" stroke-width="1" fill="none"></path></g><g transform="translate(732.2164001464844 199.42322649155858) rotate(0 30.839981079101562 10)"><text x="0" y="14.016" font-family="Virgil, Segoe UI Emoji" font-size="16px" fill="#1e1e1e" text-anchor="start" style="white-space: pre;" direction="ltr" dominant-baseline="alphabetic">chatbot</text></g><g stroke-linecap="round"><g transform="translate(749.3835144042969 61.92661976716704) rotate(0 -0.324920654296875 55.16303433669634)"><path d="M0 0 C-0.11 18.39, -0.54 91.94, -0.65 110.33 M0 0 C-0.11 18.39, -0.54 91.94, -0.65 110.33" stroke="#1e1e1e" stroke-width="1" fill="none"></path></g><g transform="translate(749.3835144042969 61.92661976716704) rotate(0 -0.324920654296875 55.16303433669634)"><path d="M-9.06 86.78 C-7.25 91.85, -5.44 96.91, -0.65 110.33 M-9.06 86.78 C-6.78 93.16, -4.5 99.55, -0.65 110.33" stroke="#1e1e1e" stroke-width="1" fill="none"></path></g><g transform="translate(749.3835144042969 61.92661976716704) rotate(0 -0.324920654296875 55.16303433669634)"><path d="M8.04 86.88 C6.17 91.93, 4.3 96.97, -0.65 110.33 M8.04 86.88 C5.68 93.24, 3.33 99.59, -0.65 110.33" stroke="#1e1e1e" stroke-width="1" fill="none"></path></g></g><mask></mask><g transform="translate(672.8141784667969 107.37114861465466) rotate(0 32.071983337402344 10)"><text x="0" y="14.016" font-family="Virgil, Segoe UI Emoji" font-size="16px" fill="#1e1e1e" text-anchor="start" style="white-space: pre;" direction="ltr" dominant-baseline="alphabetic">question</text></g><g stroke-linecap="round"><g transform="translate(769.4969645138183 175.73159135972264) rotate(0 0.14076945207523295 -55.93623352050781)"><path d="M0 0 C0.05 -18.65, 0.23 -93.23, 0.28 -111.87 M0 0 C0.05 -18.65, 0.23 -93.23, 0.28 -111.87" stroke="#1e1e1e" stroke-width="1" fill="none"></path></g><g transform="translate(769.4969645138183 175.73159135972264) rotate(0 0.14076945207523295 -55.93623352050781)"><path d="M8.77 -88.36 C6.21 -95.46, 3.64 -102.57, 0.28 -111.87 M8.77 -88.36 C7.06 -93.11, 5.34 -97.87, 0.28 -111.87" stroke="#1e1e1e" stroke-width="1" fill="none"></path></g><g transform="translate(769.4969645138183 175.73159135972264) rotate(0 0.14076945207523295 -55.93623352050781)"><path d="M-8.33 -88.4 C-5.73 -95.49, -3.13 -102.58, 0.28 -111.87 M-8.33 -88.4 C-6.59 -93.15, -4.85 -97.9, 0.28 -111.87" stroke="#1e1e1e" stroke-width="1" fill="none"></path></g></g><mask></mask><g transform="translate(779.8155899047852 107.91921343003514) rotate(0 32.991973876953125 10)"><text x="0" y="14.016" font-family="Virgil, Segoe UI Emoji" font-size="16px" fill="#1e1e1e" text-anchor="start" style="white-space: pre;" direction="ltr" dominant-baseline="alphabetic">response</text></g><g stroke-linecap="round" transform="translate(100.37114134545044 28.16854890893262) rotate(0 7.277943457228531 6.698652143562072)"><path d="M8.75 0.24 C10.18 0.5, 11.85 1.76, 12.89 2.98 C13.94 4.19, 15.12 6.14, 15 7.55 C14.88 8.95, 13.32 10.44, 12.16 11.43 C11.01 12.43, 9.62 13.43, 8.07 13.53 C6.51 13.62, 4.05 12.88, 2.83 12.01 C1.61 11.14, 1.13 9.67, 0.76 8.31 C0.38 6.95, 0.11 5.11, 0.58 3.85 C1.05 2.58, 2.17 1.23, 3.57 0.7 C4.97 0.17, 8.09 0.7, 8.99 0.66 C9.88 0.63, 8.92 0.52, 8.96 0.48 M6.7 0.59 C8.24 0.51, 9.88 1.24, 11.15 1.83 C12.43 2.42, 13.88 2.77, 14.37 4.15 C14.85 5.52, 14.6 8.58, 14.06 10.06 C13.52 11.53, 12.51 12.38, 11.15 12.99 C9.79 13.59, 7.48 14.16, 5.9 13.67 C4.31 13.18, 2.64 11.2, 1.64 10.03 C0.64 8.86, -0.25 8.01, -0.1 6.66 C0.05 5.31, 1.49 3.14, 2.51 1.93 C3.52 0.73, 5.38 -0.19, 5.99 -0.57 C6.6 -0.94, 6.21 -0.55, 6.18 -0.31" stroke="#000000" stroke-width="2" fill="none"></path></g><g stroke-linecap="round"><g transform="translate(106.82099650688394 41.49160045107237) rotate(0 -0.35711605689556336 8.12098269841141)"><path d="M0.51 -0.05 C0.46 2.69, -0.44 13.35, -0.63 16.03 M0.1 -0.55 C0.01 2.29, -0.84 13.78, -1.02 16.62" stroke="#000000" stroke-width="2" fill="none"></path></g></g><mask></mask><g stroke-linecap="round"><g transform="translate(106.17047042796202 58.1495372133669) rotate(0 3.2147260312526384 4.952599972252074)"><path d="M0.05 -0.14 C1.08 1.49, 5.38 8.03, 6.47 9.75 M-0.35 -0.52 C0.61 1.16, 5.07 8.42, 6.22 10.13" stroke="#000000" stroke-width="2" fill="none"></path></g></g><mask></mask><g stroke-linecap="round"><g transform="translate(105.8419808707736 57.81082005643418) rotate(0 -3.04377659252863 4.449655725228354)"><path d="M0.04 -0.15 C-0.94 1.41, -4.92 7.76, -5.88 9.22 M-0.36 -0.53 C-1.38 0.95, -5.15 7.2, -6.05 8.76" stroke="#000000" stroke-width="2" fill="none"></path></g></g><mask></mask><g stroke-linecap="round"><g transform="translate(97.94180508801523 50.720969438172574) rotate(0 4.250273923758257 -2.7222784515749368)"><path d="M0.21 0.32 C1.67 -0.61, 7.44 -4.78, 8.84 -5.74 M-0.12 0.18 C1.33 -0.71, 7.3 -4.56, 8.73 -5.45" stroke="#000000" stroke-width="2" fill="none"></path></g></g><mask></mask><g stroke-linecap="round"><g transform="translate(106.9219720436785 45.43445875170016) rotate(0 2.699801387610165 3.3878238184883003)"><path d="M0.34 -0.3 C1.22 0.77, 4.64 5.6, 5.51 6.73 M0.08 0.31 C0.91 1.59, 4.4 6.09, 5.28 7.15" stroke="#000000" stroke-width="2" fill="none"></path></g></g><mask></mask><g stroke-linecap="round" transform="translate(751.0350301948598 10) rotate(0 7.2779434572285595 6.698652143562072)"><path d="M7.66 -0.3 C9.12 -0.28, 10.97 0.74, 12.11 1.76 C13.25 2.78, 14.22 4.43, 14.47 5.83 C14.72 7.23, 14.56 9.03, 13.63 10.18 C12.7 11.32, 10.41 12.33, 8.88 12.68 C7.34 13.03, 5.77 12.81, 4.4 12.29 C3.03 11.76, 1.38 10.75, 0.66 9.54 C-0.07 8.33, -0.41 6.35, 0.04 5.03 C0.5 3.71, 2.08 2.46, 3.39 1.62 C4.71 0.78, 7.04 0.27, 7.94 -0.01 C8.84 -0.3, 8.78 -0.27, 8.81 -0.09 M9.4 0.11 C10.73 0.2, 11.62 1.16, 12.41 2.29 C13.19 3.43, 13.99 5.3, 14.12 6.92 C14.25 8.53, 14.14 10.78, 13.19 11.97 C12.23 13.17, 10.13 14.06, 8.37 14.08 C6.62 14.09, 4.06 12.86, 2.65 12.06 C1.24 11.26, 0.21 10.61, -0.06 9.29 C-0.33 7.97, 0.41 5.67, 1.03 4.14 C1.64 2.6, 2.4 0.79, 3.63 0.06 C4.86 -0.68, 7.56 -0.41, 8.42 -0.27 C9.28 -0.13, 8.75 0.62, 8.79 0.9" stroke="#000000" stroke-width="2" fill="none"></path></g><g stroke-linecap="round"><g transform="translate(757.4848853562933 23.32305154213975) rotate(0 -0.35711605689556336 8.12098269841141)"><path d="M0.19 -0.21 C0.1 2.39, -0.65 13.28, -0.86 15.97 M-0.38 -0.8 C-0.52 1.84, -1.45 13.68, -1.37 16.53" stroke="#000000" stroke-width="2" fill="none"></path></g></g><mask></mask><g stroke-linecap="round"><g transform="translate(756.8343592773714 39.98098830443416) rotate(0 3.214726031252667 4.952599972252074)"><path d="M-0.1 -0.17 C0.92 1.46, 5.13 8.01, 6.2 9.69 M0.5 0.5 C1.61 2.19, 5.96 8.41, 6.88 10.03" stroke="#000000" stroke-width="2" fill="none"></path></g></g><mask></mask><g stroke-linecap="round"><g transform="translate(756.5058697201829 39.642271147501674) rotate(0 -3.0437765925286158 4.449655725228354)"><path d="M-0.23 -0.22 C-1.25 1.29, -5.22 7.29, -6.22 8.86 M0.3 0.44 C-0.77 2.01, -5.42 7.93, -6.57 9.29" stroke="#000000" stroke-width="2" fill="none"></path></g></g><mask></mask><g stroke-linecap="round"><g transform="translate(748.6056939374246 32.55242052924007) rotate(0 4.250273923758243 -2.7222784515749368)"><path d="M-0.14 -0.04 C1.29 -0.87, 6.91 -4.24, 8.3 -5.17 M0.44 -0.37 C2 -1.27, 7.58 -4.82, 9 -5.66" stroke="#000000" stroke-width="2" fill="none"></path></g></g><mask></mask><g stroke-linecap="round"><g transform="translate(757.5858608930878 27.265909842767655) rotate(0 2.6998013876101368 3.3878238184883003)"><path d="M-0.2 0.27 C0.68 1.37, 4.27 5.46, 5.15 6.56 M0.35 0.1 C1.35 1.25, 4.92 5.88, 5.81 6.91" stroke="#000000" stroke-width="2" fill="none"></path></g></g><mask></mask><g stroke-linecap="round"><g transform="translate(610.862060546875 211.63323320542577) rotate(0 42.00640869140625 -0.132537841796875)"><path d="M0 0 C14 -0.04, 70.01 -0.22, 84.01 -0.27 M0 0 C14 -0.04, 70.01 -0.22, 84.01 -0.27" stroke="#1e1e1e" stroke-width="1" fill="none"></path></g><g transform="translate(610.862060546875 211.63323320542577) rotate(0 42.00640869140625 -0.132537841796875)"><path d="M60.55 8.36 C65.3 6.61, 70.05 4.87, 84.01 -0.27 M60.55 8.36 C66.61 6.13, 72.67 3.9, 84.01 -0.27" stroke="#1e1e1e" stroke-width="1" fill="none"></path></g><g transform="translate(610.862060546875 211.63323320542577) rotate(0 42.00640869140625 -0.132537841796875)"><path d="M60.49 -8.74 C65.26 -7.02, 70.02 -5.31, 84.01 -0.27 M60.49 -8.74 C66.57 -6.55, 72.64 -4.36, 84.01 -0.27" stroke="#1e1e1e" stroke-width="1" fill="none"></path></g></g><mask></mask><g transform="translate(625.0970458984375 184.49828447495702) rotate(0 18.7919921875 10)"><text x="0" y="14.016" font-family="Virgil, Segoe UI Emoji" font-size="16px" fill="#1e1e1e" text-anchor="start" style="white-space: pre;" direction="ltr" dominant-baseline="alphabetic">chain</text></g><g stroke-opacity="0.6" fill-opacity="0.6" stroke-linecap="round" transform="translate(28.424224853515625 137.17376054917577) rotate(0 172.12644958496094 68.15432739257812)"><path d="M0 0 C127.6 0, 255.21 0, 344.25 0 M344.25 0 C344.25 33.5, 344.25 67.01, 344.25 136.31 M344.25 136.31 C240.26 136.31, 136.27 136.31, 0 136.31 M0 136.31 C0 91.07, 0 45.83, 0 0" stroke="#1e1e1e" stroke-width="1.5" fill="none" stroke-dasharray="8 9"></path></g><g stroke-linecap="round"><g transform="translate(164.900634765625 210.43706621323827) rotate(0 36.24208068847656 -0.77960205078125)"><path d="M0 0 C25.97 -0.56, 51.93 -1.12, 72.48 -1.56 M0 0 C23.39 -0.5, 46.78 -1.01, 72.48 -1.56" stroke="#1e1e1e" stroke-width="1" fill="none"></path></g><g transform="translate(164.900634765625 210.43706621323827) rotate(0 36.24208068847656 -0.77960205078125)"><path d="M49.18 7.49 C57.53 4.25, 65.88 1.01, 72.48 -1.56 M49.18 7.49 C56.7 4.57, 64.22 1.65, 72.48 -1.56" stroke="#1e1e1e" stroke-width="1" fill="none"></path></g><g transform="translate(164.900634765625 210.43706621323827) rotate(0 36.24208068847656 -0.77960205078125)"><path d="M48.81 -9.6 C57.29 -6.72, 65.77 -3.84, 72.48 -1.56 M48.81 -9.6 C56.45 -7.01, 64.09 -4.41, 72.48 -1.56" stroke="#1e1e1e" stroke-width="1" fill="none"></path></g></g><mask></mask><g transform="translate(36.095184326171875 250.11113847886327) rotate(0 58.687957763671875 10)"><text x="0" y="14.016" font-family="Virgil, Segoe UI Emoji" font-size="16px" fill="#1e1e1e" text-anchor="start" style="white-space: pre;" direction="ltr" dominant-baseline="alphabetic">RAG Initializer</text></g><g transform="translate(563.3317868294607 346.8136528023525) rotate(0 64.3519515991211 10)"><text x="0" y="14.016" font-family="Virgil, Segoe UI Emoji" font-size="16px" fill="#e03131" text-anchor="start" style="white-space: pre;" direction="ltr" dominant-baseline="alphabetic">[chatbot simple]</text></g><g stroke-linecap="round" transform="translate(537.4046493663175 330.9383239746095) rotate(0 7.2779434572285595 6.698652143562072)"><path d="M7.74 0.39 C9.38 0.24, 11.36 0.63, 12.5 1.48 C13.63 2.34, 14.41 4.14, 14.54 5.53 C14.67 6.92, 14.16 8.51, 13.29 9.83 C12.41 11.14, 10.71 12.97, 9.29 13.43 C7.88 13.9, 6.15 13.28, 4.81 12.63 C3.46 11.98, 2.07 10.71, 1.21 9.54 C0.35 8.37, -0.56 6.87, -0.33 5.59 C-0.1 4.31, 1.25 2.86, 2.59 1.85 C3.94 0.84, 6.68 -0.26, 7.71 -0.47 C8.74 -0.69, 8.72 0.45, 8.77 0.56 M9.17 -0.08 C10.62 0.25, 13.06 1.93, 13.84 3.07 C14.63 4.21, 14.05 5.48, 13.86 6.75 C13.68 8.02, 13.63 9.66, 12.74 10.68 C11.84 11.7, 9.99 12.7, 8.48 12.86 C6.96 13.02, 4.96 12.45, 3.65 11.66 C2.34 10.87, 1.15 9.41, 0.6 8.12 C0.06 6.83, -0.24 5.12, 0.39 3.9 C1.02 2.68, 2.81 1.54, 4.37 0.8 C5.93 0.07, 9.07 -0.33, 9.75 -0.52 C10.42 -0.71, 8.51 -0.6, 8.4 -0.34" stroke="#000000" stroke-width="2" fill="none"></path></g><g stroke-linecap="round"><g transform="translate(543.8545045277509 344.2613755167491) rotate(0 -0.35711605689556336 8.12098269841141)"><path d="M0.04 -0.53 C-0.08 2.18, -0.29 13.73, -0.34 16.61 M-0.61 0.38 C-0.8 2.92, -0.62 13.24, -0.58 15.83" stroke="#000000" stroke-width="2" fill="none"></path></g></g><mask></mask><g stroke-linecap="round"><g transform="translate(543.203978448829 360.91931227904354) rotate(0 3.214726031252667 4.952599972252074)"><path d="M0.24 0.24 C1.35 2, 5.69 8.6, 6.7 10.22 M-0.07 0.05 C1.02 1.75, 5.55 8.04, 6.56 9.76" stroke="#000000" stroke-width="2" fill="none"></path></g></g><mask></mask><g stroke-linecap="round"><g transform="translate(542.8754888916405 360.58059512211105) rotate(0 -3.0437765925286158 4.449655725228354)"><path d="M0.27 0.31 C-0.8 1.77, -5.13 7.55, -6.2 8.95 M-0.01 0.17 C-1.16 1.66, -5.47 7.95, -6.54 9.43" stroke="#000000" stroke-width="2" fill="none"></path></g></g><mask></mask><g stroke-linecap="round"><g transform="translate(534.9753131088822 353.49074450384944) rotate(0 4.250273923758243 -2.7222784515749368)"><path d="M-0.11 0.05 C1.24 -0.93, 7.02 -4.65, 8.41 -5.61 M0.47 -0.23 C1.75 -1.01, 6.67 -4.37, 8.09 -5.24" stroke="#000000" stroke-width="2" fill="none"></path></g></g><mask></mask><g stroke-linecap="round"><g transform="translate(543.9554800645454 348.20423381737703) rotate(0 2.6998013876101368 3.3878238184883003)"><path d="M-0.09 -0.16 C0.79 0.92, 4.21 5.35, 5.17 6.52 M0.52 0.52 C1.52 1.64, 5 5.72, 5.85 6.85" stroke="#000000" stroke-width="2" fill="none"></path></g></g><mask></mask><g stroke-linecap="round"><g stroke-opacity="0.6" fill-opacity="0.6" transform="translate(547.2717895507812 320.42791093980077) rotate(0 0.375885009765625 -41.6700439453125)"><path d="M0 0 C0.15 -16.97, 0.31 -33.94, 0.75 -83.34 M0 0 C0.2 -21.96, 0.4 -43.92, 0.75 -83.34" stroke="#1e1e1e" stroke-width="1" fill="none"></path></g><g stroke-opacity="0.6" fill-opacity="0.6" transform="translate(547.2717895507812 320.42791093980077) rotate(0 0.375885009765625 -41.6700439453125)"><path d="M9.09 -59.77 C7.39 -64.57, 5.69 -69.37, 0.75 -83.34 M9.09 -59.77 C6.89 -65.98, 4.7 -72.19, 0.75 -83.34" stroke="#1e1e1e" stroke-width="1" fill="none"></path></g><g stroke-opacity="0.6" fill-opacity="0.6" transform="translate(547.2717895507812 320.42791093980077) rotate(0 0.375885009765625 -41.6700439453125)"><path d="M-8.01 -59.93 C-6.23 -64.69, -4.44 -69.46, 0.75 -83.34 M-8.01 -59.93 C-5.7 -66.1, -3.39 -72.27, 0.75 -83.34" stroke="#1e1e1e" stroke-width="1" fill="none"></path></g></g><mask></mask></svg>